<svg xmlns="http://www.w3.org/2000/svg" xmlns:xlink="http://www.w3.org/1999/xlink" width="502" zoomAndPan="magnify" viewBox="0 0 376.5 154.499995" height="206" preserveAspectRatio="xMidYMid meet" version="1.0"><defs><g/><clipPath id="1e370795e5"><path d="M 0.359375 0 L 365 0 L 365 154 L 0.359375 154 Z M 0.359375 0 " clip-rule="nonzero"/></clipPath><clipPath id="67f07bcec7"><rect x="0" width="104" y="0" height="42"/></clipPath><clipPath id="b02a68bb38"><path d="M 236 46 L 364.9375 46 L 364.9375 88 L 236 88 Z M 236 46 " clip-rule="nonzero"/></clipPath><clipPath id="89bb2de38c"><rect x="0" width="129" y="0" height="42"/></clipPath><clipPath id="9834bb8cf4"><path d="M 3 1.84375 L 61.179688 1.84375 L 61.179688 114.550781 L 3 114.550781 Z M 3 1.84375 " clip-rule="nonzero"/></clipPath><clipPath id="6962fb831f"><path d="M 61.1875 1.84375 L 119 1.84375 L 119 114.550781 L 61.1875 114.550781 Z M 61.1875 1.84375 " clip-rule="nonzero"/></clipPath><clipPath id="c196a3889a"><path d="M 0.199219 0.902344 L 57.773438 0.902344 L 57.773438 113.550781 L 0.199219 113.550781 Z M 0.199219 0.902344 " clip-rule="nonzero"/></clipPath><clipPath id="10b21aba4b"><rect x="0" width="58" y="0" height="114"/></clipPath><clipPath id="02dbcbac71"><path d="M 0.359375 54 L 123 54 L 123 63 L 0.359375 63 Z M 0.359375 54 " clip-rule="nonzero"/></clipPath><clipPath id="252b93617c"><path d="M 53.9375 129.53125 L 77.511719 129.53125 L 77.511719 153.9375 L 53.9375 153.9375 Z M 53.9375 129.53125 " clip-rule="nonzero"/></clipPath><clipPath id="a394cd9d75"><path d="M 65.726562 153.9375 C 72.234375 153.9375 77.511719 148.488281 77.511719 141.765625 C 77.511719 135.042969 72.234375 129.597656 65.726562 129.597656 C 59.214844 129.597656 53.9375 135.042969 53.9375 141.765625 C 53.9375 148.488281 59.214844 153.9375 65.726562 153.9375 Z M 65.726562 153.9375 " clip-rule="nonzero"/></clipPath><clipPath id="9b3421d9e3"><path d="M 0.9375 0.53125 L 24.511719 0.53125 L 24.511719 24.9375 L 0.9375 24.9375 Z M 0.9375 0.53125 " clip-rule="nonzero"/></clipPath><clipPath id="ac1f6e16c3"><path d="M 12.726562 24.9375 C 19.234375 24.9375 24.511719 19.488281 24.511719 12.765625 C 24.511719 6.042969 19.234375 0.597656 12.726562 0.597656 C 6.214844 0.597656 0.9375 6.042969 0.9375 12.765625 C 0.9375 19.488281 6.214844 24.9375 12.726562 24.9375 Z M 12.726562 24.9375 " clip-rule="nonzero"/></clipPath><clipPath id="569bca0b8e"><rect x="0" width="25" y="0" height="25"/></clipPath><clipPath id="b5415ced4d"><path d="M 54 129.640625 L 77.511719 129.640625 L 77.511719 153.9375 L 54 153.9375 Z M 54 129.640625 " clip-rule="nonzero"/></clipPath><clipPath id="a1e00700e7"><path d="M 65.726562 153.9375 C 72.234375 153.9375 77.511719 148.488281 77.511719 141.765625 C 77.511719 135.046875 72.234375 129.597656 65.726562 129.597656 C 59.214844 129.597656 53.9375 135.046875 53.9375 141.765625 C 53.9375 148.488281 59.214844 153.9375 65.726562 153.9375 Z M 65.726562 153.9375 " clip-rule="nonzero"/></clipPath><clipPath id="636af2b1aa"><path d="M 49.085938 0 L 82.363281 0 L 82.363281 116.210938 L 49.085938 116.210938 Z M 49.085938 0 " clip-rule="nonzero"/></clipPath><clipPath id="106c0c38f1"><path d="M 82.363281 91.203125 C 82.363281 105.003906 74.914062 116.191406 65.726562 116.191406 C 56.535156 116.191406 49.085938 105.003906 49.085938 91.203125 L 49.085938 24.992188 C 49.085938 11.1875 56.535156 0 65.726562 0 C 74.914062 0 82.363281 11.1875 82.363281 24.992188 Z M 82.363281 91.203125 " clip-rule="nonzero"/></clipPath><clipPath id="182be22b81"><path d="M 0.0859375 0 L 33.363281 0 L 33.363281 116.210938 L 0.0859375 116.210938 Z M 0.0859375 0 " clip-rule="nonzero"/></clipPath><clipPath id="8932fe90e0"><path d="M 33.363281 91.203125 C 33.363281 105.003906 25.914062 116.191406 16.726562 116.191406 C 7.535156 116.191406 0.0859375 105.003906 0.0859375 91.203125 L 0.0859375 24.992188 C 0.0859375 11.1875 7.535156 0 16.726562 0 C 25.914062 0 33.363281 11.1875 33.363281 24.992188 Z M 33.363281 91.203125 " clip-rule="nonzero"/></clipPath><clipPath id="179c2998ef"><rect x="0" width="34" y="0" height="117"/></clipPath><clipPath id="85e533574d"><rect x="0" width="365" y="0" height="154"/></clipPath></defs><g clip-path="url(#1e370795e5)"><g transform="matrix(1, 0, 0, 1, 0.000000000000000056, 0)"><g clip-path="url(#85e533574d)"><g transform="matrix(1, 0, 0, 1, 125, 46)"><g clip-path="url(#67f07bcec7)"><g fill="#3a5e96" fill-opacity="1"><g transform="translate(1.039582, 31.746261)"><g><path d="M 8.65625 0 C 7.925781 0 7.238281 -0.140625 6.59375 -0.421875 C 5.945312 -0.703125 5.382812 -1.078125 4.90625 -1.546875 C 4.4375 -2.023438 4.0625 -2.59375 3.78125 -3.25 C 3.5 -3.90625 3.359375 -4.597656 3.359375 -5.328125 L 3.359375 -19.734375 C 3.359375 -20.460938 3.5 -21.148438 3.78125 -21.796875 C 4.0625 -22.441406 4.4375 -23.007812 4.90625 -23.5 C 5.382812 -23.988281 5.945312 -24.375 6.59375 -24.65625 C 7.238281 -24.9375 7.925781 -25.078125 8.65625 -25.078125 L 16.8125 -25.078125 C 17.539062 -25.078125 18.226562 -24.9375 18.875 -24.65625 C 19.519531 -24.375 20.085938 -23.988281 20.578125 -23.5 C 21.066406 -23.007812 21.445312 -22.441406 21.71875 -21.796875 C 22 -21.148438 22.140625 -20.460938 22.140625 -19.734375 L 22.140625 -5.328125 C 22.140625 -4.597656 22 -3.90625 21.71875 -3.25 C 21.445312 -2.59375 21.066406 -2.023438 20.578125 -1.546875 C 20.085938 -1.078125 19.519531 -0.703125 18.875 -0.421875 C 18.226562 -0.140625 17.539062 0 16.8125 0 Z M 8.65625 -22.296875 C 7.957031 -22.296875 7.359375 -22.046875 6.859375 -21.546875 C 6.359375 -21.046875 6.109375 -20.441406 6.109375 -19.734375 L 6.109375 -5.328125 C 6.109375 -4.628906 6.359375 -4.03125 6.859375 -3.53125 C 7.359375 -3.03125 7.957031 -2.78125 8.65625 -2.78125 L 16.8125 -2.78125 C 17.519531 -2.78125 18.125 -3.03125 18.625 -3.53125 C 19.125 -4.03125 19.375 -4.628906 19.375 -5.328125 L 19.375 -19.734375 C 19.375 -20.441406 19.125 -21.046875 18.625 -21.546875 C 18.125 -22.046875 17.519531 -22.296875 16.8125 -22.296875 Z M 8.65625 -22.296875 "/></g></g></g><g fill="#3a5e96" fill-opacity="1"><g transform="translate(26.581107, 31.746261)"><g><path d="M 11.359375 -0.515625 L 11.359375 -22.296875 L 3.875 -22.296875 C 3.53125 -22.296875 3.359375 -22.46875 3.359375 -22.8125 L 3.359375 -24.5625 C 3.359375 -24.90625 3.53125 -25.078125 3.875 -25.078125 L 21.640625 -25.078125 C 21.972656 -25.078125 22.140625 -24.90625 22.140625 -24.5625 L 22.140625 -22.8125 C 22.140625 -22.46875 21.972656 -22.296875 21.640625 -22.296875 L 14.140625 -22.296875 L 14.140625 -0.515625 C 14.140625 -0.367188 14.082031 -0.242188 13.96875 -0.140625 C 13.863281 -0.046875 13.75 0 13.625 0 L 11.875 0 C 11.53125 0 11.359375 -0.171875 11.359375 -0.515625 Z M 11.359375 -0.515625 "/></g></g></g><g fill="#3a5e96" fill-opacity="1"><g transform="translate(52.122633, 31.746261)"><g><path d="M 11.359375 -0.515625 L 11.359375 -22.296875 L 3.875 -22.296875 C 3.53125 -22.296875 3.359375 -22.46875 3.359375 -22.8125 L 3.359375 -24.5625 C 3.359375 -24.90625 3.53125 -25.078125 3.875 -25.078125 L 21.640625 -25.078125 C 21.972656 -25.078125 22.140625 -24.90625 22.140625 -24.5625 L 22.140625 -22.8125 C 22.140625 -22.46875 21.972656 -22.296875 21.640625 -22.296875 L 14.140625 -22.296875 L 14.140625 -0.515625 C 14.140625 -0.367188 14.082031 -0.242188 13.96875 -0.140625 C 13.863281 -0.046875 13.75 0 13.625 0 L 11.875 0 C 11.53125 0 11.359375 -0.171875 11.359375 -0.515625 Z M 11.359375 -0.515625 "/></g></g></g><g fill="#3a5e96" fill-opacity="1"><g transform="translate(77.664159, 31.746261)"><g><path d="M 16.15625 -25.078125 C 16.300781 -25.078125 16.441406 -25.023438 16.578125 -24.921875 C 16.710938 -24.828125 16.800781 -24.71875 16.84375 -24.59375 L 21.921875 -11.875 C 21.972656 -11.75 22.015625 -11.585938 22.046875 -11.390625 C 22.085938 -11.203125 22.109375 -11.035156 22.109375 -10.890625 L 22.109375 -0.515625 C 22.109375 -0.171875 21.9375 0 21.59375 0 L 19.875 0 C 19.539062 0 19.375 -0.171875 19.375 -0.515625 L 19.375 -7.265625 L 6.109375 -7.265625 L 6.109375 -0.515625 C 6.109375 -0.171875 5.9375 0 5.59375 0 L 3.84375 0 C 3.5 0 3.328125 -0.171875 3.328125 -0.515625 L 3.328125 -10.890625 C 3.328125 -11.035156 3.34375 -11.203125 3.375 -11.390625 C 3.414062 -11.585938 3.460938 -11.75 3.515625 -11.875 L 8.59375 -24.59375 C 8.632812 -24.71875 8.726562 -24.828125 8.875 -24.921875 C 9.019531 -25.023438 9.15625 -25.078125 9.28125 -25.078125 Z M 19.375 -10.015625 L 19.375 -10.890625 L 14.796875 -22.296875 L 10.671875 -22.296875 L 6.109375 -10.890625 L 6.109375 -10.015625 Z M 19.375 -10.015625 "/></g></g></g></g></g><g clip-path="url(#b02a68bb38)"><g transform="matrix(1, 0, 0, 1, 236, 46)"><g clip-path="url(#89bb2de38c)"><g fill="#3a5e96" fill-opacity="1"><g transform="translate(0.789485, 31.746261)"><g><path d="M 17.71875 -18.609375 C 17.71875 -19.015625 17.578125 -19.359375 17.296875 -19.640625 C 17.023438 -19.921875 16.691406 -20.0625 16.296875 -20.0625 L 9.140625 -20.0625 C 8.742188 -20.0625 8.40625 -19.921875 8.125 -19.640625 C 7.851562 -19.359375 7.71875 -19.015625 7.71875 -18.609375 L 7.71875 -6.46875 C 7.71875 -6.050781 7.851562 -5.703125 8.125 -5.421875 C 8.40625 -5.140625 8.742188 -5 9.140625 -5 L 16.296875 -5 C 16.691406 -5 17.023438 -5.140625 17.296875 -5.421875 C 17.578125 -5.703125 17.71875 -6.050781 17.71875 -6.46875 L 17.71875 -10.015625 L 13.515625 -10.015625 C 13.296875 -10.015625 13.109375 -10.09375 12.953125 -10.25 C 12.796875 -10.40625 12.71875 -10.59375 12.71875 -10.8125 L 12.71875 -14.25 C 12.71875 -14.46875 12.796875 -14.648438 12.953125 -14.796875 C 13.109375 -14.941406 13.296875 -15.015625 13.515625 -15.015625 L 21.96875 -15.015625 C 22.1875 -15.015625 22.367188 -14.941406 22.515625 -14.796875 C 22.660156 -14.648438 22.734375 -14.46875 22.734375 -14.25 L 22.734375 -6.46875 C 22.734375 -5.5625 22.5625 -4.71875 22.21875 -3.9375 C 21.875 -3.164062 21.410156 -2.484375 20.828125 -1.890625 C 20.242188 -1.304688 19.5625 -0.84375 18.78125 -0.5 C 18 -0.164062 17.171875 0 16.296875 0 L 9.140625 0 C 8.265625 0 7.4375 -0.164062 6.65625 -0.5 C 5.875 -0.84375 5.191406 -1.304688 4.609375 -1.890625 C 4.023438 -2.484375 3.5625 -3.164062 3.21875 -3.9375 C 2.875 -4.71875 2.703125 -5.5625 2.703125 -6.46875 L 2.703125 -18.609375 C 2.703125 -19.503906 2.875 -20.34375 3.21875 -21.125 C 3.5625 -21.90625 4.023438 -22.585938 4.609375 -23.171875 C 5.191406 -23.753906 5.875 -24.21875 6.65625 -24.5625 C 7.4375 -24.90625 8.265625 -25.078125 9.140625 -25.078125 L 16.296875 -25.078125 C 17.171875 -25.078125 18 -24.90625 18.78125 -24.5625 C 19.5625 -24.21875 20.242188 -23.753906 20.828125 -23.171875 C 21.410156 -22.585938 21.875 -21.90625 22.21875 -21.125 C 22.5625 -20.34375 22.734375 -19.503906 22.734375 -18.609375 L 22.734375 -18.34375 C 22.734375 -18.125 22.660156 -17.9375 22.515625 -17.78125 C 22.367188 -17.625 22.1875 -17.546875 21.96875 -17.546875 L 18.53125 -17.546875 C 18.3125 -17.546875 18.117188 -17.625 17.953125 -17.78125 C 17.796875 -17.9375 17.71875 -18.125 17.71875 -18.34375 Z M 17.71875 -18.609375 "/></g></g></g><g fill="#3a5e96" fill-opacity="1"><g transform="translate(26.294471, 31.746261)"><g><path d="M 21.671875 0 L 4.5625 0 C 4.34375 0 4.15625 -0.078125 4 -0.234375 C 3.84375 -0.390625 3.765625 -0.578125 3.765625 -0.796875 L 3.765625 -24.265625 C 3.765625 -24.484375 3.84375 -24.671875 4 -24.828125 C 4.15625 -24.992188 4.34375 -25.078125 4.5625 -25.078125 L 7.96875 -25.078125 C 8.1875 -25.078125 8.375 -24.992188 8.53125 -24.828125 C 8.6875 -24.671875 8.765625 -24.484375 8.765625 -24.265625 L 8.765625 -5 L 21.671875 -5 C 21.890625 -5 22.070312 -4.921875 22.21875 -4.765625 C 22.363281 -4.609375 22.4375 -4.421875 22.4375 -4.203125 L 22.4375 -0.796875 C 22.4375 -0.578125 22.363281 -0.390625 22.21875 -0.234375 C 22.070312 -0.078125 21.890625 0 21.671875 0 Z M 21.671875 0 "/></g></g></g><g fill="#3a5e96" fill-opacity="1"><g transform="translate(51.835997, 31.746261)"><g><path d="M 16.296875 -25.03125 C 17.203125 -25.03125 18.039062 -24.859375 18.8125 -24.515625 C 19.59375 -24.179688 20.273438 -23.71875 20.859375 -23.125 C 21.453125 -22.539062 21.914062 -21.859375 22.25 -21.078125 C 22.59375 -20.304688 22.765625 -19.484375 22.765625 -18.609375 L 22.765625 -6.4375 C 22.765625 -5.550781 22.59375 -4.71875 22.25 -3.9375 C 21.914062 -3.164062 21.453125 -2.484375 20.859375 -1.890625 C 20.273438 -1.304688 19.59375 -0.84375 18.8125 -0.5 C 18.039062 -0.164062 17.203125 0 16.296875 0 L 9.171875 0 C 8.273438 0 7.4375 -0.164062 6.65625 -0.5 C 5.875 -0.84375 5.191406 -1.304688 4.609375 -1.890625 C 4.023438 -2.484375 3.5625 -3.164062 3.21875 -3.9375 C 2.875 -4.71875 2.703125 -5.550781 2.703125 -6.4375 L 2.703125 -18.609375 C 2.703125 -19.484375 2.875 -20.304688 3.21875 -21.078125 C 3.5625 -21.859375 4.023438 -22.539062 4.609375 -23.125 C 5.191406 -23.71875 5.875 -24.179688 6.65625 -24.515625 C 7.4375 -24.859375 8.273438 -25.03125 9.171875 -25.03125 Z M 17.765625 -18.609375 C 17.765625 -19.015625 17.625 -19.351562 17.34375 -19.625 C 17.0625 -19.894531 16.710938 -20.03125 16.296875 -20.03125 L 9.171875 -20.03125 C 8.753906 -20.03125 8.40625 -19.894531 8.125 -19.625 C 7.851562 -19.351562 7.71875 -19.015625 7.71875 -18.609375 L 7.71875 -6.4375 C 7.71875 -6.019531 7.851562 -5.675781 8.125 -5.40625 C 8.40625 -5.132812 8.753906 -5 9.171875 -5 L 16.296875 -5 C 16.710938 -5 17.0625 -5.132812 17.34375 -5.40625 C 17.625 -5.675781 17.765625 -6.019531 17.765625 -6.4375 Z M 17.765625 -18.609375 "/></g></g></g><g fill="#3a5e96" fill-opacity="1"><g transform="translate(77.377522, 31.746261)"><g><path d="M 16.296875 -25.078125 C 17.171875 -25.078125 18 -24.90625 18.78125 -24.5625 C 19.5625 -24.21875 20.242188 -23.753906 20.828125 -23.171875 C 21.410156 -22.585938 21.875 -21.90625 22.21875 -21.125 C 22.5625 -20.34375 22.734375 -19.503906 22.734375 -18.609375 L 22.734375 -16.484375 C 22.734375 -15.722656 22.609375 -15.015625 22.359375 -14.359375 C 22.117188 -13.703125 21.789062 -13.09375 21.375 -12.53125 C 21.789062 -11.96875 22.117188 -11.359375 22.359375 -10.703125 C 22.609375 -10.046875 22.734375 -9.34375 22.734375 -8.59375 L 22.734375 -6.46875 C 22.734375 -5.5625 22.5625 -4.71875 22.21875 -3.9375 C 21.875 -3.164062 21.410156 -2.484375 20.828125 -1.890625 C 20.242188 -1.304688 19.5625 -0.84375 18.78125 -0.5 C 18 -0.164062 17.171875 0 16.296875 0 L 3.46875 0 C 3.25 0 3.066406 -0.078125 2.921875 -0.234375 C 2.773438 -0.390625 2.703125 -0.578125 2.703125 -0.796875 L 2.703125 -24.265625 C 2.703125 -24.484375 2.773438 -24.671875 2.921875 -24.828125 C 3.066406 -24.992188 3.25 -25.078125 3.46875 -25.078125 Z M 7.71875 -15.0625 L 16.296875 -15.0625 C 16.691406 -15.0625 17.023438 -15.191406 17.296875 -15.453125 C 17.578125 -15.722656 17.71875 -16.066406 17.71875 -16.484375 L 17.71875 -18.609375 C 17.71875 -19.015625 17.578125 -19.359375 17.296875 -19.640625 C 17.023438 -19.921875 16.691406 -20.0625 16.296875 -20.0625 L 7.71875 -20.0625 Z M 17.71875 -8.59375 C 17.71875 -9 17.578125 -9.335938 17.296875 -9.609375 C 17.023438 -9.878906 16.691406 -10.015625 16.296875 -10.015625 L 7.71875 -10.015625 L 7.71875 -5 L 16.296875 -5 C 16.691406 -5 17.023438 -5.140625 17.296875 -5.421875 C 17.578125 -5.703125 17.71875 -6.050781 17.71875 -6.46875 Z M 17.71875 -8.59375 "/></g></g></g><g fill="#3a5e96" fill-opacity="1"><g transform="translate(102.882509, 31.746261)"><g><path d="M 16.15625 -25.078125 C 16.375 -25.078125 16.585938 -25 16.796875 -24.84375 C 17.003906 -24.695312 17.144531 -24.53125 17.21875 -24.34375 L 22.46875 -11.25 C 22.550781 -11.0625 22.617188 -10.8125 22.671875 -10.5 C 22.734375 -10.195312 22.765625 -9.9375 22.765625 -9.71875 L 22.765625 -0.796875 C 22.765625 -0.578125 22.6875 -0.390625 22.53125 -0.234375 C 22.375 -0.078125 22.1875 0 21.96875 0 L 18.53125 0 C 18.3125 0 18.117188 -0.078125 17.953125 -0.234375 C 17.796875 -0.390625 17.71875 -0.578125 17.71875 -0.796875 L 17.71875 -5 L 7.71875 -5 L 7.71875 -0.796875 C 7.71875 -0.578125 7.632812 -0.390625 7.46875 -0.234375 C 7.3125 -0.078125 7.125 0 6.90625 0 L 3.515625 0 C 3.285156 0 3.09375 -0.078125 2.9375 -0.234375 C 2.78125 -0.390625 2.703125 -0.578125 2.703125 -0.796875 L 2.703125 -9.71875 C 2.703125 -9.9375 2.734375 -10.195312 2.796875 -10.5 C 2.859375 -10.8125 2.925781 -11.0625 3 -11.25 L 8.21875 -24.34375 C 8.320312 -24.53125 8.472656 -24.695312 8.671875 -24.84375 C 8.878906 -25 9.09375 -25.078125 9.3125 -25.078125 Z M 7.890625 -10.015625 L 17.546875 -10.015625 L 13.515625 -20.0625 L 11.921875 -20.0625 Z M 7.890625 -10.015625 "/></g></g></g></g></g></g><g clip-path="url(#9834bb8cf4)"><path fill="#3a5e96" d="M 61.132812 1.902344 L 61.132812 114.550781 C 41.042969 114.0625 24.949219 106.316406 13.964844 89.773438 C 1.097656 70.394531 0.425781 49.886719 12.082031 29.789062 C 22.726562 11.4375 39.5 2.695312 61.128906 1.898438 Z M 61.132812 1.902344 " fill-opacity="1" fill-rule="nonzero"/></g><g clip-path="url(#6962fb831f)"><g transform="matrix(1, 0, 0, 1, 61, 1)"><g clip-path="url(#10b21aba4b)"><g clip-path="url(#c196a3889a)"><path fill="#3a5e96" d="M 0.246094 113.550781 L 0.246094 0.902344 C 20.335938 1.390625 36.429688 9.136719 47.414062 25.679688 C 60.277344 45.058594 60.953125 65.566406 49.296875 85.664062 C 38.652344 104.015625 21.875 112.757812 0.246094 113.554688 Z M 0.246094 113.550781 " fill-opacity="1" fill-rule="nonzero"/></g></g></g></g><g clip-path="url(#02dbcbac71)"><path stroke-linecap="butt" transform="matrix(-0.156753, 0, 0, -0.156753, 118.607543, 62.269674)" fill="none" stroke-linejoin="miter" d="M -0.0116869 23.500209 L 732.603266 23.500209 " stroke="#ffffff" stroke-width="47" stroke-opacity="1" stroke-miterlimit="4"/></g><path stroke-linecap="butt" transform="matrix(0, 0.156753, -0.156753, 0, 66.195953, 114.553417)" fill="none" stroke-linejoin="miter" d="M 0.00810344 2.99445 C 37.886083 2.99445 69.509212 2.99445 94.877491 2.99445 " stroke="#e76835" stroke-width="6" stroke-opacity="1" stroke-miterlimit="4"/><g clip-path="url(#252b93617c)"><g clip-path="url(#a394cd9d75)"><g transform="matrix(1, 0, 0, 1, 53, 129)"><g clip-path="url(#569bca0b8e)"><g clip-path="url(#9b3421d9e3)"><g clip-path="url(#ac1f6e16c3)"><path fill="#fdbf65" d="M 24.511719 24.9375 L 0.9375 24.9375 L 0.9375 0.625 L 24.511719 0.625 Z M 24.511719 24.9375 " fill-opacity="1" fill-rule="nonzero"/></g></g></g></g></g></g><g clip-path="url(#b5415ced4d)"><g clip-path="url(#a1e00700e7)"><path stroke-linecap="butt" transform="matrix(-0.156753, 0, 0, -0.156753, 77.513009, 153.936013)" fill="none" stroke-linejoin="miter" d="M 75.191039 -0.00948644 C 33.67478 -0.00948644 0.00823305 34.753528 0.00823305 77.640372 C 0.00823305 120.502297 33.67478 155.265311 75.191039 155.265311 C 116.732218 155.265311 150.398765 120.502297 150.398765 77.640372 C 150.398765 34.753528 116.732218 -0.00948644 75.191039 -0.00948644 Z M 75.191039 -0.00948644 " stroke="#fdbf65" stroke-width="9.538305" stroke-opacity="1" stroke-miterlimit="4"/></g></g><g clip-path="url(#636af2b1aa)"><g clip-path="url(#106c0c38f1)"><g transform="matrix(1, 0, 0, 1, 49, 0)"><g clip-path="url(#179c2998ef)"><g clip-path="url(#182be22b81)"><g clip-path="url(#8932fe90e0)"><path fill="#ffffff" d="M 33.363281 0 L 33.363281 116.210938 L 0.0859375 116.210938 L 0.0859375 0 Z M 33.363281 0 " fill-opacity="1" fill-rule="nonzero"/></g></g></g></g></g></g></g></g></g></svg>