<svg xmlns="http://www.w3.org/2000/svg" xmlns:xlink="http://www.w3.org/1999/xlink" width="383" zoomAndPan="magnify" viewBox="0 0 287.25 118.499997" height="158" preserveAspectRatio="xMidYMid meet" version="1.0"><defs><g/><clipPath id="c1bb9bcb65"><path d="M 0.230469 0 L 279 0 L 279 118.003906 L 0.230469 118.003906 Z M 0.230469 0 " clip-rule="nonzero"/></clipPath><clipPath id="63fe532cfa"><rect x="0" width="80" y="0" height="32"/></clipPath><clipPath id="2d157d3037"><path d="M 180 35 L 278.175781 35 L 278.175781 67 L 180 67 Z M 180 35 " clip-rule="nonzero"/></clipPath><clipPath id="83bbf06450"><rect x="0" width="99" y="0" height="32"/></clipPath><clipPath id="1d4d3db4d8"><path d="M 2 1.40625 L 46.589844 1.40625 L 46.589844 87.3125 L 2 87.3125 Z M 2 1.40625 " clip-rule="nonzero"/></clipPath><clipPath id="4ddb21ff9a"><path d="M 46.597656 1.40625 L 92.957031 1.40625 L 92.957031 87.3125 L 46.597656 87.3125 Z M 46.597656 1.40625 " clip-rule="nonzero"/></clipPath><clipPath id="f2b7892f55"><path d="M 0.605469 0.449219 L 45 0.449219 L 45 86.3125 L 0.605469 86.3125 Z M 0.605469 0.449219 " clip-rule="nonzero"/></clipPath><clipPath id="071aaf71a8"><rect x="0" width="47" y="0" height="87"/></clipPath><clipPath id="d9d5ce70a5"><path d="M 0.230469 41 L 94 41 L 94 48 L 0.230469 48 Z M 0.230469 41 " clip-rule="nonzero"/></clipPath><clipPath id="38e6be8a70"><path d="M 41.070312 98.734375 L 59.039062 98.734375 L 59.039062 117.335938 L 41.070312 117.335938 Z M 41.070312 98.734375 " clip-rule="nonzero"/></clipPath><clipPath id="40755c371b"><path d="M 50.054688 117.335938 C 55.015625 117.335938 59.039062 113.183594 59.039062 108.058594 C 59.039062 102.933594 55.015625 98.78125 50.054688 98.78125 C 45.09375 98.78125 41.070312 102.933594 41.070312 108.058594 C 41.070312 113.183594 45.09375 117.335938 50.054688 117.335938 Z M 50.054688 117.335938 " clip-rule="nonzero"/></clipPath><clipPath id="2140c90c15"><path d="M 0.0703125 0.734375 L 18.039062 0.734375 L 18.039062 19.335938 L 0.0703125 19.335938 Z M 0.0703125 0.734375 " clip-rule="nonzero"/></clipPath><clipPath id="6b712e18b8"><path d="M 9.054688 19.335938 C 14.015625 19.335938 18.039062 15.183594 18.039062 10.058594 C 18.039062 4.933594 14.015625 0.78125 9.054688 0.78125 C 4.09375 0.78125 0.0703125 4.933594 0.0703125 10.058594 C 0.0703125 15.183594 4.09375 19.335938 9.054688 19.335938 Z M 9.054688 19.335938 " clip-rule="nonzero"/></clipPath><clipPath id="f50b985461"><rect x="0" width="19" y="0" height="20"/></clipPath><clipPath id="158fc1ea64"><path d="M 41.117188 98.816406 L 59.039062 98.816406 L 59.039062 117.335938 L 41.117188 117.335938 Z M 41.117188 98.816406 " clip-rule="nonzero"/></clipPath><clipPath id="f33632af30"><path d="M 50.054688 117.335938 C 55.015625 117.335938 59.039062 113.179688 59.039062 108.058594 C 59.039062 102.933594 55.015625 98.78125 50.054688 98.78125 C 45.09375 98.78125 41.070312 102.933594 41.070312 108.058594 C 41.070312 113.179688 45.09375 117.335938 50.054688 117.335938 Z M 50.054688 117.335938 " clip-rule="nonzero"/></clipPath><clipPath id="13fa700c3e"><path d="M 37.371094 0 L 62.738281 0 L 62.738281 88.578125 L 37.371094 88.578125 Z M 37.371094 0 " clip-rule="nonzero"/></clipPath><clipPath id="e1138807b6"><path d="M 62.738281 69.515625 C 62.738281 80.039062 57.058594 88.566406 50.054688 88.566406 C 43.050781 88.566406 37.371094 80.039062 37.371094 69.515625 L 37.371094 19.050781 C 37.371094 8.527344 43.050781 0 50.054688 0 C 57.058594 0 62.738281 8.527344 62.738281 19.050781 Z M 62.738281 69.515625 " clip-rule="nonzero"/></clipPath><clipPath id="5e9f1bfe0e"><path d="M 0.371094 0 L 25.738281 0 L 25.738281 88.578125 L 0.371094 88.578125 Z M 0.371094 0 " clip-rule="nonzero"/></clipPath><clipPath id="8c6364929e"><path d="M 25.738281 69.515625 C 25.738281 80.039062 20.058594 88.566406 13.054688 88.566406 C 6.050781 88.566406 0.371094 80.039062 0.371094 69.515625 L 0.371094 19.050781 C 0.371094 8.527344 6.050781 0 13.054688 0 C 20.058594 0 25.738281 8.527344 25.738281 19.050781 Z M 25.738281 69.515625 " clip-rule="nonzero"/></clipPath><clipPath id="ebe791106a"><rect x="0" width="26" y="0" height="89"/></clipPath><clipPath id="014827cc60"><rect x="0" width="279" y="0" height="119"/></clipPath></defs><g clip-path="url(#c1bb9bcb65)"><g><g clip-path="url(#014827cc60)"><g transform="matrix(1, 0, 0, 1, 95, 35)"><g clip-path="url(#63fe532cfa)"><g fill="#ffffff" fill-opacity="1"><g transform="translate(1.028218, 24.260509)"><g><path d="M 6.609375 0 C 6.046875 0 5.519531 -0.101562 5.03125 -0.3125 C 4.539062 -0.53125 4.113281 -0.820312 3.75 -1.1875 C 3.382812 -1.550781 3.09375 -1.984375 2.875 -2.484375 C 2.664062 -2.984375 2.5625 -3.507812 2.5625 -4.0625 L 2.5625 -15.046875 C 2.5625 -15.597656 2.664062 -16.117188 2.875 -16.609375 C 3.09375 -17.109375 3.382812 -17.539062 3.75 -17.90625 C 4.113281 -18.28125 4.539062 -18.570312 5.03125 -18.78125 C 5.519531 -19 6.046875 -19.109375 6.609375 -19.109375 L 12.8125 -19.109375 C 13.375 -19.109375 13.898438 -19 14.390625 -18.78125 C 14.878906 -18.570312 15.304688 -18.28125 15.671875 -17.90625 C 16.046875 -17.539062 16.34375 -17.109375 16.5625 -16.609375 C 16.78125 -16.117188 16.890625 -15.597656 16.890625 -15.046875 L 16.890625 -4.0625 C 16.890625 -3.507812 16.78125 -2.984375 16.5625 -2.484375 C 16.34375 -1.984375 16.046875 -1.550781 15.671875 -1.1875 C 15.304688 -0.820312 14.878906 -0.53125 14.390625 -0.3125 C 13.898438 -0.101562 13.375 0 12.8125 0 Z M 6.609375 -17 C 6.066406 -17 5.601562 -16.804688 5.21875 -16.421875 C 4.84375 -16.046875 4.65625 -15.585938 4.65625 -15.046875 L 4.65625 -4.0625 C 4.65625 -3.53125 4.84375 -3.070312 5.21875 -2.6875 C 5.601562 -2.3125 6.066406 -2.125 6.609375 -2.125 L 12.8125 -2.125 C 13.351562 -2.125 13.8125 -2.3125 14.1875 -2.6875 C 14.570312 -3.070312 14.765625 -3.53125 14.765625 -4.0625 L 14.765625 -15.046875 C 14.765625 -15.585938 14.570312 -16.046875 14.1875 -16.421875 C 13.8125 -16.804688 13.351562 -17 12.8125 -17 Z M 6.609375 -17 "/></g></g></g><g fill="#ffffff" fill-opacity="1"><g transform="translate(20.496726, 24.260509)"><g><path d="M 8.671875 -0.390625 L 8.671875 -17 L 2.953125 -17 C 2.691406 -17 2.5625 -17.128906 2.5625 -17.390625 L 2.5625 -18.71875 C 2.5625 -18.976562 2.691406 -19.109375 2.953125 -19.109375 L 16.5 -19.109375 C 16.757812 -19.109375 16.890625 -18.976562 16.890625 -18.71875 L 16.890625 -17.390625 C 16.890625 -17.128906 16.757812 -17 16.5 -17 L 10.78125 -17 L 10.78125 -0.390625 C 10.78125 -0.273438 10.738281 -0.179688 10.65625 -0.109375 C 10.570312 -0.0351562 10.484375 0 10.390625 0 L 9.046875 0 C 8.796875 0 8.671875 -0.128906 8.671875 -0.390625 Z M 8.671875 -0.390625 "/></g></g></g><g fill="#ffffff" fill-opacity="1"><g transform="translate(39.965235, 24.260509)"><g><path d="M 8.671875 -0.390625 L 8.671875 -17 L 2.953125 -17 C 2.691406 -17 2.5625 -17.128906 2.5625 -17.390625 L 2.5625 -18.71875 C 2.5625 -18.976562 2.691406 -19.109375 2.953125 -19.109375 L 16.5 -19.109375 C 16.757812 -19.109375 16.890625 -18.976562 16.890625 -18.71875 L 16.890625 -17.390625 C 16.890625 -17.128906 16.757812 -17 16.5 -17 L 10.78125 -17 L 10.78125 -0.390625 C 10.78125 -0.273438 10.738281 -0.179688 10.65625 -0.109375 C 10.570312 -0.0351562 10.484375 0 10.390625 0 L 9.046875 0 C 8.796875 0 8.671875 -0.128906 8.671875 -0.390625 Z M 8.671875 -0.390625 "/></g></g></g><g fill="#ffffff" fill-opacity="1"><g transform="translate(59.433743, 24.260509)"><g><path d="M 12.3125 -19.109375 C 12.425781 -19.109375 12.53125 -19.070312 12.625 -19 C 12.726562 -18.925781 12.800781 -18.84375 12.84375 -18.75 L 16.71875 -9.046875 C 16.75 -8.960938 16.78125 -8.84375 16.8125 -8.6875 C 16.84375 -8.539062 16.859375 -8.410156 16.859375 -8.296875 L 16.859375 -0.390625 C 16.859375 -0.128906 16.726562 0 16.46875 0 L 15.15625 0 C 14.894531 0 14.765625 -0.128906 14.765625 -0.390625 L 14.765625 -5.546875 L 4.65625 -5.546875 L 4.65625 -0.390625 C 4.65625 -0.128906 4.523438 0 4.265625 0 L 2.921875 0 C 2.660156 0 2.53125 -0.128906 2.53125 -0.390625 L 2.53125 -8.296875 C 2.53125 -8.410156 2.546875 -8.539062 2.578125 -8.6875 C 2.609375 -8.84375 2.640625 -8.960938 2.671875 -9.046875 L 6.546875 -18.75 C 6.585938 -18.84375 6.660156 -18.925781 6.765625 -19 C 6.878906 -19.070312 6.984375 -19.109375 7.078125 -19.109375 Z M 14.765625 -7.640625 L 14.765625 -8.296875 L 11.28125 -17 L 8.140625 -17 L 4.65625 -8.296875 L 4.65625 -7.640625 Z M 14.765625 -7.640625 "/></g></g></g></g></g><g clip-path="url(#2d157d3037)"><g transform="matrix(1, 0, 0, 1, 180, 35)"><g clip-path="url(#83bbf06450)"><g fill="#ffffff" fill-opacity="1"><g transform="translate(0.445101, 24.260509)"><g><path d="M 13.515625 -14.1875 C 13.515625 -14.5 13.40625 -14.757812 13.1875 -14.96875 C 12.976562 -15.1875 12.722656 -15.296875 12.421875 -15.296875 L 6.96875 -15.296875 C 6.664062 -15.296875 6.40625 -15.1875 6.1875 -14.96875 C 5.976562 -14.757812 5.875 -14.5 5.875 -14.1875 L 5.875 -4.9375 C 5.875 -4.613281 5.976562 -4.34375 6.1875 -4.125 C 6.40625 -3.914062 6.664062 -3.8125 6.96875 -3.8125 L 12.421875 -3.8125 C 12.722656 -3.8125 12.976562 -3.914062 13.1875 -4.125 C 13.40625 -4.34375 13.515625 -4.613281 13.515625 -4.9375 L 13.515625 -7.640625 L 10.3125 -7.640625 C 10.144531 -7.640625 10 -7.695312 9.875 -7.8125 C 9.75 -7.9375 9.6875 -8.082031 9.6875 -8.25 L 9.6875 -10.859375 C 9.6875 -11.023438 9.75 -11.164062 9.875 -11.28125 C 10 -11.394531 10.144531 -11.453125 10.3125 -11.453125 L 16.75 -11.453125 C 16.914062 -11.453125 17.050781 -11.394531 17.15625 -11.28125 C 17.269531 -11.164062 17.328125 -11.023438 17.328125 -10.859375 L 17.328125 -4.9375 C 17.328125 -4.25 17.195312 -3.609375 16.9375 -3.015625 C 16.675781 -2.421875 16.320312 -1.898438 15.875 -1.453125 C 15.4375 -1.003906 14.914062 -0.648438 14.3125 -0.390625 C 13.71875 -0.128906 13.085938 0 12.421875 0 L 6.96875 0 C 6.300781 0 5.664062 -0.128906 5.0625 -0.390625 C 4.46875 -0.648438 3.945312 -1.003906 3.5 -1.453125 C 3.0625 -1.898438 2.710938 -2.421875 2.453125 -3.015625 C 2.191406 -3.609375 2.0625 -4.25 2.0625 -4.9375 L 2.0625 -14.1875 C 2.0625 -14.875 2.191406 -15.515625 2.453125 -16.109375 C 2.710938 -16.703125 3.0625 -17.21875 3.5 -17.65625 C 3.945312 -18.101562 4.46875 -18.457031 5.0625 -18.71875 C 5.664062 -18.976562 6.300781 -19.109375 6.96875 -19.109375 L 12.421875 -19.109375 C 13.085938 -19.109375 13.71875 -18.976562 14.3125 -18.71875 C 14.914062 -18.457031 15.4375 -18.101562 15.875 -17.65625 C 16.320312 -17.21875 16.675781 -16.703125 16.9375 -16.109375 C 17.195312 -15.515625 17.328125 -14.875 17.328125 -14.1875 L 17.328125 -13.984375 C 17.328125 -13.816406 17.269531 -13.671875 17.15625 -13.546875 C 17.050781 -13.429688 16.914062 -13.375 16.75 -13.375 L 14.125 -13.375 C 13.957031 -13.375 13.8125 -13.429688 13.6875 -13.546875 C 13.570312 -13.671875 13.515625 -13.816406 13.515625 -13.984375 Z M 13.515625 -14.1875 "/></g></g></g><g fill="#ffffff" fill-opacity="1"><g transform="translate(19.885758, 24.260509)"><g><path d="M 16.515625 0 L 3.484375 0 C 3.316406 0 3.171875 -0.0546875 3.046875 -0.171875 C 2.929688 -0.296875 2.875 -0.441406 2.875 -0.609375 L 2.875 -18.5 C 2.875 -18.664062 2.929688 -18.804688 3.046875 -18.921875 C 3.171875 -19.046875 3.316406 -19.109375 3.484375 -19.109375 L 6.078125 -19.109375 C 6.242188 -19.109375 6.382812 -19.046875 6.5 -18.921875 C 6.625 -18.804688 6.6875 -18.664062 6.6875 -18.5 L 6.6875 -3.8125 L 16.515625 -3.8125 C 16.679688 -3.8125 16.820312 -3.75 16.9375 -3.625 C 17.050781 -3.507812 17.109375 -3.367188 17.109375 -3.203125 L 17.109375 -0.609375 C 17.109375 -0.441406 17.050781 -0.296875 16.9375 -0.171875 C 16.820312 -0.0546875 16.679688 0 16.515625 0 Z M 16.515625 0 "/></g></g></g><g fill="#ffffff" fill-opacity="1"><g transform="translate(39.354267, 24.260509)"><g><path d="M 12.421875 -19.078125 C 13.109375 -19.078125 13.75 -18.945312 14.34375 -18.6875 C 14.9375 -18.425781 15.457031 -18.070312 15.90625 -17.625 C 16.351562 -17.1875 16.707031 -16.671875 16.96875 -16.078125 C 17.226562 -15.484375 17.359375 -14.851562 17.359375 -14.1875 L 17.359375 -4.90625 C 17.359375 -4.238281 17.226562 -3.609375 16.96875 -3.015625 C 16.707031 -2.421875 16.351562 -1.898438 15.90625 -1.453125 C 15.457031 -1.003906 14.9375 -0.648438 14.34375 -0.390625 C 13.75 -0.128906 13.109375 0 12.421875 0 L 7 0 C 6.3125 0 5.664062 -0.128906 5.0625 -0.390625 C 4.46875 -0.648438 3.945312 -1.003906 3.5 -1.453125 C 3.0625 -1.898438 2.710938 -2.421875 2.453125 -3.015625 C 2.191406 -3.609375 2.0625 -4.238281 2.0625 -4.90625 L 2.0625 -14.1875 C 2.0625 -14.851562 2.191406 -15.484375 2.453125 -16.078125 C 2.710938 -16.671875 3.0625 -17.1875 3.5 -17.625 C 3.945312 -18.070312 4.46875 -18.425781 5.0625 -18.6875 C 5.664062 -18.945312 6.3125 -19.078125 7 -19.078125 Z M 13.546875 -14.1875 C 13.546875 -14.5 13.4375 -14.753906 13.21875 -14.953125 C 13.007812 -15.160156 12.742188 -15.265625 12.421875 -15.265625 L 7 -15.265625 C 6.675781 -15.265625 6.40625 -15.160156 6.1875 -14.953125 C 5.976562 -14.753906 5.875 -14.5 5.875 -14.1875 L 5.875 -4.90625 C 5.875 -4.582031 5.976562 -4.316406 6.1875 -4.109375 C 6.40625 -3.910156 6.675781 -3.8125 7 -3.8125 L 12.421875 -3.8125 C 12.742188 -3.8125 13.007812 -3.910156 13.21875 -4.109375 C 13.4375 -4.316406 13.546875 -4.582031 13.546875 -4.90625 Z M 13.546875 -14.1875 "/></g></g></g><g fill="#ffffff" fill-opacity="1"><g transform="translate(58.822775, 24.260509)"><g><path d="M 12.421875 -19.109375 C 13.085938 -19.109375 13.71875 -18.976562 14.3125 -18.71875 C 14.914062 -18.457031 15.4375 -18.101562 15.875 -17.65625 C 16.320312 -17.21875 16.675781 -16.703125 16.9375 -16.109375 C 17.195312 -15.515625 17.328125 -14.875 17.328125 -14.1875 L 17.328125 -12.5625 C 17.328125 -11.988281 17.234375 -11.453125 17.046875 -10.953125 C 16.859375 -10.453125 16.609375 -9.988281 16.296875 -9.5625 C 16.609375 -9.132812 16.859375 -8.664062 17.046875 -8.15625 C 17.234375 -7.65625 17.328125 -7.117188 17.328125 -6.546875 L 17.328125 -4.9375 C 17.328125 -4.25 17.195312 -3.609375 16.9375 -3.015625 C 16.675781 -2.421875 16.320312 -1.898438 15.875 -1.453125 C 15.4375 -1.003906 14.914062 -0.648438 14.3125 -0.390625 C 13.71875 -0.128906 13.085938 0 12.421875 0 L 2.640625 0 C 2.472656 0 2.332031 -0.0546875 2.21875 -0.171875 C 2.113281 -0.296875 2.0625 -0.441406 2.0625 -0.609375 L 2.0625 -18.5 C 2.0625 -18.664062 2.113281 -18.804688 2.21875 -18.921875 C 2.332031 -19.046875 2.472656 -19.109375 2.640625 -19.109375 Z M 5.875 -11.484375 L 12.421875 -11.484375 C 12.722656 -11.484375 12.976562 -11.582031 13.1875 -11.78125 C 13.40625 -11.988281 13.515625 -12.25 13.515625 -12.5625 L 13.515625 -14.1875 C 13.515625 -14.5 13.40625 -14.757812 13.1875 -14.96875 C 12.976562 -15.1875 12.722656 -15.296875 12.421875 -15.296875 L 5.875 -15.296875 Z M 13.515625 -6.546875 C 13.515625 -6.859375 13.40625 -7.117188 13.1875 -7.328125 C 12.976562 -7.535156 12.722656 -7.640625 12.421875 -7.640625 L 5.875 -7.640625 L 5.875 -3.8125 L 12.421875 -3.8125 C 12.722656 -3.8125 12.976562 -3.914062 13.1875 -4.125 C 13.40625 -4.34375 13.515625 -4.613281 13.515625 -4.9375 Z M 13.515625 -6.546875 "/></g></g></g><g fill="#ffffff" fill-opacity="1"><g transform="translate(78.263433, 24.260509)"><g><path d="M 12.3125 -19.109375 C 12.476562 -19.109375 12.640625 -19.050781 12.796875 -18.9375 C 12.953125 -18.832031 13.0625 -18.703125 13.125 -18.546875 L 17.140625 -8.578125 C 17.191406 -8.429688 17.238281 -8.238281 17.28125 -8 C 17.332031 -7.769531 17.359375 -7.570312 17.359375 -7.40625 L 17.359375 -0.609375 C 17.359375 -0.441406 17.296875 -0.296875 17.171875 -0.171875 C 17.054688 -0.0546875 16.914062 0 16.75 0 L 14.125 0 C 13.957031 0 13.8125 -0.0546875 13.6875 -0.171875 C 13.570312 -0.296875 13.515625 -0.441406 13.515625 -0.609375 L 13.515625 -3.8125 L 5.875 -3.8125 L 5.875 -0.609375 C 5.875 -0.441406 5.8125 -0.296875 5.6875 -0.171875 C 5.570312 -0.0546875 5.429688 0 5.265625 0 L 2.671875 0 C 2.503906 0 2.359375 -0.0546875 2.234375 -0.171875 C 2.117188 -0.296875 2.0625 -0.441406 2.0625 -0.609375 L 2.0625 -7.40625 C 2.0625 -7.570312 2.082031 -7.769531 2.125 -8 C 2.175781 -8.238281 2.226562 -8.429688 2.28125 -8.578125 L 6.265625 -18.546875 C 6.335938 -18.703125 6.453125 -18.832031 6.609375 -18.9375 C 6.773438 -19.050781 6.941406 -19.109375 7.109375 -19.109375 Z M 6.015625 -7.640625 L 13.375 -7.640625 L 10.3125 -15.296875 L 9.078125 -15.296875 Z M 6.015625 -7.640625 "/></g></g></g></g></g></g><g clip-path="url(#1d4d3db4d8)"><path fill="#ffffff" d="M 46.546875 1.40625 L 46.546875 87.3125 C 31.234375 86.941406 18.96875 81.035156 10.597656 68.417969 C 0.796875 53.640625 0.28125 38 9.164062 22.675781 C 17.277344 8.679688 30.0625 2.011719 46.542969 1.40625 Z M 46.546875 1.40625 " fill-opacity="1" fill-rule="nonzero"/></g><g clip-path="url(#4ddb21ff9a)"><g transform="matrix(1, 0, 0, 1, 46, 1)"><g clip-path="url(#071aaf71a8)"><g clip-path="url(#f2b7892f55)"><path fill="#ffffff" d="M 0.648438 86.355469 L 0.648438 0.449219 C 15.957031 0.824219 28.222656 6.726562 36.59375 19.34375 C 46.398438 34.125 46.914062 49.761719 38.03125 65.089844 C 29.917969 79.085938 17.132812 85.753906 0.648438 86.359375 Z M 0.648438 86.355469 " fill-opacity="1" fill-rule="nonzero"/></g></g></g></g><g clip-path="url(#d9d5ce70a5)"><path stroke-linecap="butt" transform="matrix(-0.119482, 0, 0, -0.119482, 90.363319, 47.463795)" fill="none" stroke-linejoin="miter" d="M 0.000312191 23.497626 L 732.62208 23.497626 " stroke="#3a5e96" stroke-width="47" stroke-opacity="1" stroke-miterlimit="4"/></g><path stroke-linecap="butt" transform="matrix(0, 0.119482, -0.119482, 0, 50.413637, 87.316021)" fill="none" stroke-linejoin="miter" d="M 0.00322704 3.004209 C 37.894638 3.004209 69.508956 3.004209 94.878874 3.004209 " stroke="#ffffff" stroke-width="6" stroke-opacity="1" stroke-miterlimit="4"/><g clip-path="url(#38e6be8a70)"><g clip-path="url(#40755c371b)"><g transform="matrix(1, 0, 0, 1, 41, 98)"><g clip-path="url(#f50b985461)"><g clip-path="url(#2140c90c15)"><g clip-path="url(#6b712e18b8)"><path fill="#fdbf65" d="M 18.039062 19.335938 L 0.0703125 19.335938 L 0.0703125 0.804688 L 18.039062 0.804688 Z M 18.039062 19.335938 " fill-opacity="1" fill-rule="nonzero"/></g></g></g></g></g></g><g clip-path="url(#158fc1ea64)"><g clip-path="url(#f33632af30)"><path stroke-linecap="butt" transform="matrix(-0.119482, 0, 0, -0.119482, 59.039832, 117.334603)" fill="none" stroke-linejoin="miter" d="M 75.200782 -0.0111649 C 33.680429 -0.0111649 0.00644153 34.774391 0.00644153 77.635164 C 0.00644153 120.528631 33.680429 155.281494 75.200782 155.281494 C 116.721134 155.281494 150.395122 120.528631 150.395122 77.635164 C 150.395122 34.774391 116.721134 -0.0111649 75.200782 -0.0111649 Z M 75.200782 -0.0111649 " stroke="#fdbf65" stroke-width="12.501436" stroke-opacity="1" stroke-miterlimit="4"/></g></g><g clip-path="url(#13fa700c3e)"><g clip-path="url(#e1138807b6)"><g transform="matrix(1, 0, 0, 1, 37, 0)"><g clip-path="url(#ebe791106a)"><g clip-path="url(#5e9f1bfe0e)"><g clip-path="url(#8c6364929e)"><path fill="#3a5e96" d="M 25.738281 0 L 25.738281 88.578125 L 0.371094 88.578125 L 0.371094 0 Z M 25.738281 0 " fill-opacity="1" fill-rule="nonzero"/></g></g></g></g></g></g></g></g></g></svg>