<svg width="112" height="32" viewBox="0 0 112 32" fill="none" xmlns="http://www.w3.org/2000/svg">
<rect y="2" width="28" height="28" rx="14" fill="#0D0D12"/>
<g clip-path="url(#clip0_4665_42558)">
<path fill-rule="evenodd" clip-rule="evenodd" d="M16.1624 12.2947C16.2853 12.0073 16.3535 11.6901 16.3535 11.3568C16.3535 10.0552 15.314 9 14.0318 9C12.7497 9 11.7102 10.0552 11.7102 11.3568C11.7102 11.6901 11.7784 12.0073 11.9014 12.2947C11.4794 11.705 10.7947 11.3216 10.0218 11.3216C8.73961 11.3216 7.7002 12.3768 7.7002 13.6784C7.7002 14.8409 8.5293 15.8068 9.61996 16C8.5293 16.1932 7.7002 17.1591 7.7002 18.3216C7.7002 19.6232 8.73961 20.6784 10.0218 20.6784C10.7947 20.6784 11.4794 20.295 11.9014 19.7053C11.7784 19.9927 11.7102 20.3099 11.7102 20.6432C11.7102 21.9448 12.7497 23 14.0318 23C15.314 23 16.3535 21.9448 16.3535 20.6432C16.3535 20.3099 16.2853 19.9927 16.1624 19.7053C16.5843 20.295 17.269 20.6784 18.0419 20.6784C19.3241 20.6784 20.3635 19.6232 20.3635 18.3216C20.3635 17.1591 19.5344 16.1932 18.4437 16C19.5344 15.8068 20.3635 14.8409 20.3635 13.6784C20.3635 12.3768 19.3241 11.3216 18.0419 11.3216C17.269 11.3216 16.5843 11.705 16.1624 12.2947ZM15.9114 19.2596C15.7885 18.9721 15.7203 18.655 15.7203 18.3216C15.7203 17.1591 16.5494 16.1932 17.6401 16C16.5494 15.8068 15.7203 14.8409 15.7203 13.6784C15.7203 13.3451 15.7885 13.0279 15.9114 12.7405C15.4894 13.3302 14.8048 13.7136 14.0318 13.7136C13.259 13.7136 12.5743 13.3302 12.1523 12.7405C12.2752 13.0279 12.3434 13.3451 12.3434 13.6784C12.3434 14.8409 11.5143 15.8068 10.4237 16C11.5143 16.1932 12.3434 17.1591 12.3434 18.3216C12.3434 18.655 12.2752 18.9721 12.1523 19.2596C12.5743 18.6699 13.259 18.2864 14.0318 18.2864C14.8048 18.2864 15.4894 18.6699 15.9114 19.2596Z" fill="#F8FAFB"/>
</g>
<path d="M39.9176 7.04545H43.1136L48.6705 20.6136H48.875L54.4318 7.04545H57.6278V24.5H55.1222V11.8693H54.9602L49.8125 24.4744H47.733L42.5852 11.8608H42.4233V24.5H39.9176V7.04545ZM66.8942 24.7642C65.6044 24.7642 64.4936 24.4886 63.5618 23.9375C62.6357 23.3807 61.9197 22.5994 61.4141 21.5938C60.9141 20.5824 60.6641 19.3977 60.6641 18.0398C60.6641 16.6989 60.9141 15.517 61.4141 14.4943C61.9197 13.4716 62.6243 12.6733 63.5277 12.0994C64.4368 11.5256 65.4993 11.2386 66.7152 11.2386C67.4538 11.2386 68.1697 11.3608 68.8629 11.6051C69.5561 11.8494 70.1783 12.233 70.7294 12.7557C71.2805 13.2784 71.7152 13.9574 72.0334 14.7926C72.3516 15.6222 72.5107 16.6307 72.5107 17.8182V18.7216H62.1044V16.8125H70.0135C70.0135 16.142 69.8771 15.5483 69.6044 15.0312C69.3317 14.5085 68.9482 14.0966 68.4538 13.7955C67.9652 13.4943 67.3913 13.3438 66.7322 13.3438C66.0163 13.3438 65.3913 13.5199 64.8572 13.8722C64.3288 14.2187 63.9197 14.6733 63.63 15.2358C63.3459 15.7926 63.2038 16.3977 63.2038 17.0511V18.5426C63.2038 19.4176 63.3572 20.1619 63.6641 20.7756C63.9766 21.3892 64.4112 21.858 64.968 22.1818C65.5249 22.5 66.1754 22.6591 66.9197 22.6591C67.4027 22.6591 67.843 22.5909 68.2408 22.4545C68.6385 22.3125 68.9822 22.1023 69.272 21.8239C69.5618 21.5455 69.7834 21.2017 69.9368 20.7926L72.3487 21.2273C72.1555 21.9375 71.8089 22.5597 71.3089 23.0938C70.8146 23.6222 70.1925 24.0341 69.4425 24.3295C68.6982 24.6193 67.8487 24.7642 66.8942 24.7642ZM81.4489 11.4091V13.4545H74.2983V11.4091H81.4489ZM76.2159 8.27273H78.7642V20.6562C78.7642 21.1506 78.8381 21.5227 78.9858 21.7727C79.1335 22.017 79.3239 22.1847 79.5568 22.2756C79.7955 22.3608 80.054 22.4034 80.3324 22.4034C80.5369 22.4034 80.7159 22.3892 80.8693 22.3608C81.0227 22.3324 81.142 22.3097 81.2273 22.2926L81.6875 24.3977C81.5398 24.4545 81.3295 24.5114 81.0568 24.5682C80.7841 24.6307 80.4432 24.6648 80.0341 24.6705C79.3636 24.6818 78.7386 24.5625 78.1591 24.3125C77.5795 24.0625 77.1108 23.6761 76.7528 23.1534C76.3949 22.6307 76.2159 21.9744 76.2159 21.1847V8.27273ZM88.0774 24.7898C87.2479 24.7898 86.4979 24.6364 85.8274 24.3295C85.157 24.017 84.6257 23.5653 84.2337 22.9744C83.8473 22.3835 83.6541 21.6591 83.6541 20.8011C83.6541 20.0625 83.7962 19.4545 84.0803 18.9773C84.3643 18.5 84.7479 18.1222 85.2308 17.8438C85.7138 17.5653 86.2536 17.3551 86.8501 17.2131C87.4467 17.071 88.0547 16.9631 88.674 16.8892C89.4581 16.7983 90.0945 16.7244 90.5831 16.6676C91.0717 16.6051 91.4268 16.5057 91.6484 16.3693C91.87 16.233 91.9808 16.0114 91.9808 15.7045V15.6449C91.9808 14.9006 91.7706 14.3239 91.3501 13.9148C90.9354 13.5057 90.3161 13.3011 89.4922 13.3011C88.6342 13.3011 87.9581 13.4915 87.4638 13.8722C86.9751 14.2472 86.6371 14.6648 86.4496 15.125L84.0547 14.5795C84.3388 13.7841 84.7536 13.142 85.299 12.6534C85.8501 12.1591 86.4837 11.8011 87.1996 11.5795C87.9155 11.3523 88.6683 11.2386 89.4581 11.2386C89.9808 11.2386 90.5348 11.3011 91.12 11.4261C91.7109 11.5455 92.2621 11.767 92.7734 12.0909C93.2905 12.4148 93.7138 12.8778 94.0433 13.4801C94.3729 14.0767 94.5376 14.8523 94.5376 15.8068V24.5H92.049V22.7102H91.9467C91.782 23.0398 91.5348 23.3636 91.2053 23.6818C90.8757 24 90.4524 24.2642 89.9354 24.4744C89.4183 24.6847 88.799 24.7898 88.0774 24.7898ZM88.6314 22.7443C89.3359 22.7443 89.9382 22.6051 90.4382 22.3267C90.9439 22.0483 91.3274 21.6847 91.5888 21.2358C91.8558 20.7812 91.9893 20.2955 91.9893 19.7784V18.0909C91.8984 18.1818 91.7223 18.267 91.4609 18.3466C91.2053 18.4205 90.9126 18.4858 90.5831 18.5426C90.2536 18.5937 89.9325 18.642 89.62 18.6875C89.3075 18.7273 89.0462 18.7614 88.8359 18.7898C88.3416 18.8523 87.8899 18.9574 87.4808 19.1051C87.0774 19.2528 86.7536 19.4659 86.5092 19.7443C86.2706 20.017 86.1513 20.3807 86.1513 20.8352C86.1513 21.4659 86.3842 21.9432 86.8501 22.267C87.3161 22.5852 87.9098 22.7443 88.6314 22.7443ZM104.162 11.4091V13.4545H96.7642V11.4091H104.162ZM98.7926 24.5V9.89204C98.7926 9.07386 98.9716 8.39489 99.3295 7.85511C99.6875 7.30966 100.162 6.90341 100.753 6.63636C101.344 6.36364 101.986 6.22727 102.679 6.22727C103.19 6.22727 103.628 6.26989 103.991 6.35511C104.355 6.43466 104.625 6.50852 104.801 6.5767L104.205 8.6392C104.085 8.60511 103.932 8.56534 103.744 8.51989C103.557 8.46875 103.33 8.44318 103.062 8.44318C102.443 8.44318 102 8.59659 101.733 8.90341C101.472 9.21023 101.341 9.65341 101.341 10.233V24.5H98.7926ZM106.791 24.5V11.4091H109.339V24.5H106.791ZM108.078 9.3892C107.635 9.3892 107.254 9.24148 106.936 8.94602C106.624 8.64489 106.467 8.28693 106.467 7.87216C106.467 7.4517 106.624 7.09375 106.936 6.79829C107.254 6.49716 107.635 6.34659 108.078 6.34659C108.521 6.34659 108.899 6.49716 109.212 6.79829C109.53 7.09375 109.689 7.4517 109.689 7.87216C109.689 8.28693 109.53 8.64489 109.212 8.94602C108.899 9.24148 108.521 9.3892 108.078 9.3892Z" fill="#0D0D12"/>
<defs>
<clipPath id="clip0_4665_42558">
<rect width="14" height="14" fill="white" transform="translate(7.00009 9)"/>
</clipPath>
</defs>
</svg>
