<svg width="28" height="28" viewBox="0 0 28 28" fill="none" xmlns="http://www.w3.org/2000/svg">
<rect width="28" height="28" rx="14" fill="#0D0D12"/>
<g clip-path="url(#clip0_4759_47922)">
<path fill-rule="evenodd" clip-rule="evenodd" d="M16.1624 10.2947C16.2853 10.0073 16.3535 9.69011 16.3535 9.35678C16.3535 8.05517 15.314 7 14.0318 7C12.7497 7 11.7102 8.05517 11.7102 9.35678C11.7102 9.69011 11.7784 10.0073 11.9014 10.2947C11.4794 9.70502 10.7947 9.32161 10.0218 9.32161C8.73961 9.32161 7.7002 10.3768 7.7002 11.6784C7.7002 12.8409 8.5293 13.8068 9.61996 14C8.5293 14.1932 7.7002 15.1591 7.7002 16.3216C7.7002 17.6232 8.73961 18.6784 10.0218 18.6784C10.7947 18.6784 11.4794 18.295 11.9014 17.7053C11.7784 17.9927 11.7102 18.3099 11.7102 18.6432C11.7102 19.9448 12.7497 21 14.0318 21C15.314 21 16.3535 19.9448 16.3535 18.6432C16.3535 18.3099 16.2853 17.9927 16.1624 17.7053C16.5843 18.295 17.269 18.6784 18.0419 18.6784C19.3241 18.6784 20.3635 17.6232 20.3635 16.3216C20.3635 15.1591 19.5344 14.1932 18.4437 14C19.5344 13.8068 20.3635 12.8409 20.3635 11.6784C20.3635 10.3768 19.3241 9.32161 18.0419 9.32161C17.269 9.32161 16.5843 9.70502 16.1624 10.2947ZM15.9114 17.2596C15.7885 16.9721 15.7203 16.655 15.7203 16.3216C15.7203 15.1591 16.5494 14.1932 17.6401 14C16.5494 13.8068 15.7203 12.8409 15.7203 11.6784C15.7203 11.3451 15.7885 11.0279 15.9114 10.7405C15.4894 11.3302 14.8048 11.7136 14.0318 11.7136C13.259 11.7136 12.5743 11.3302 12.1523 10.7405C12.2752 11.0279 12.3434 11.3451 12.3434 11.6784C12.3434 12.8409 11.5143 13.8068 10.4237 14C11.5143 14.1932 12.3434 15.1591 12.3434 16.3216C12.3434 16.655 12.2752 16.9721 12.1523 17.2596C12.5743 16.6699 13.259 16.2864 14.0318 16.2864C14.8048 16.2864 15.4894 16.6699 15.9114 17.2596Z" fill="#F8FAFB"/>
</g>
<defs>
<clipPath id="clip0_4759_47922">
<rect width="14" height="14" fill="white" transform="translate(7.00009 7)"/>
</clipPath>
</defs>
</svg>
