<svg xmlns="http://www.w3.org/2000/svg" xmlns:xlink="http://www.w3.org/1999/xlink" width="500" zoomAndPan="magnify" viewBox="0 0 375 374.999991" height="500" preserveAspectRatio="xMidYMid meet" version="1.0"><defs><clipPath id="mainCircle"><circle cx="187.5" cy="187.5" r="187.5"/></clipPath><clipPath id="8ba8b5e170"><path d="M 95 67.433594 L 187.234375 67.433594 L 187.234375 247.433594 L 95 247.433594 Z M 95 67.433594 " clip-rule="nonzero"/></clipPath><clipPath id="1cbac33a8d"><path d="M 187.503906 67.433594 L 284.253906 67.433594 L 284.253906 247.433594 L 187.503906 247.433594 Z M 187.503906 67.433594 " clip-rule="nonzero"/></clipPath><clipPath id="2ba0e9ca88"><path d="M 0.761719 0.773438 L 93 0.773438 L 93 180.433594 L 0.761719 180.433594 Z M 0.761719 0.773438 " clip-rule="nonzero"/></clipPath><clipPath id="d8f0d80fbd"><rect x="0" width="98" y="0" height="181"/></clipPath><clipPath id="678a867960"><path d="M 175.929688 271.324219 L 213.53125 271.324219 L 213.53125 310.246094 L 175.929688 310.246094 Z M 175.929688 271.324219 " clip-rule="nonzero"/></clipPath><clipPath id="c76ea4f266"><path d="M 194.730469 310.246094 C 205.113281 310.246094 213.53125 301.554688 213.53125 290.835938 C 213.53125 280.117188 205.113281 271.425781 194.730469 271.425781 C 184.347656 271.425781 175.929688 280.117188 175.929688 290.835938 C 175.929688 301.554688 184.347656 310.246094 194.730469 310.246094 Z M 194.730469 310.246094 " clip-rule="nonzero"/></clipPath><clipPath id="778859c959"><path d="M 0.929688 0.324219 L 38.53125 0.324219 L 38.53125 39.246094 L 0.929688 39.246094 Z M 0.929688 0.324219 " clip-rule="nonzero"/></clipPath><clipPath id="55c849194f"><path d="M 19.730469 39.246094 C 30.113281 39.246094 38.53125 30.554688 38.53125 19.835938 C 38.53125 9.117188 30.113281 0.425781 19.730469 0.425781 C 9.347656 0.425781 0.929688 9.117188 0.929688 19.835938 C 0.929688 30.554688 9.347656 39.246094 19.730469 39.246094 Z M 19.730469 39.246094 " clip-rule="nonzero"/></clipPath><clipPath id="fd8b8ee955"><rect x="0" width="39" y="0" height="40"/></clipPath><clipPath id="7b37021afe"><path d="M 168.191406 64.742188 L 221.265625 64.742188 L 221.265625 250.085938 L 168.191406 250.085938 Z M 168.191406 64.742188 " clip-rule="nonzero"/></clipPath><clipPath id="00c1d63d54"><path d="M 221.265625 210.199219 C 221.265625 232.210938 209.382812 250.054688 194.730469 250.054688 C 180.074219 250.054688 168.191406 232.210938 168.191406 210.199219 L 168.191406 104.601562 C 168.191406 82.589844 180.074219 64.742188 194.730469 64.742188 C 209.382812 64.742188 221.265625 82.589844 221.265625 104.601562 Z M 221.265625 210.199219 " clip-rule="nonzero"/></clipPath><clipPath id="31949ca162"><path d="M 0.191406 0.742188 L 53.265625 0.742188 L 53.265625 186.078125 L 0.191406 186.078125 Z M 0.191406 0.742188 " clip-rule="nonzero"/></clipPath><clipPath id="f82445c4e1"><path d="M 53.265625 146.199219 C 53.265625 168.210938 41.382812 186.054688 26.730469 186.054688 C 12.074219 186.054688 0.191406 168.210938 0.191406 146.199219 L 0.191406 40.601562 C 0.191406 18.589844 12.074219 0.742188 26.730469 0.742188 C 41.382812 0.742188 53.265625 18.589844 53.265625 40.601562 Z M 53.265625 146.199219 " clip-rule="nonzero"/></clipPath><clipPath id="6eb1225348"><rect x="0" width="54" y="0" height="187"/></clipPath></defs><g clip-path="url(#mainCircle)"><rect x="-37.5" width="450" fill="#3a5e96" y="-37.499999" height="449.999989" fill-opacity="1"/><g clip-path="url(#8ba8b5e170)"><path fill="#ffffff" d="M 187.152344 67.433594 L 187.152344 247.433594 C 155.195312 246.652344 129.59375 234.28125 112.125 207.84375 C 91.660156 176.878906 90.589844 144.109375 109.128906 111.996094 C 126.0625 82.671875 152.742188 68.699219 187.148438 67.433594 Z M 187.152344 67.433594 " fill-opacity="1" fill-rule="nonzero"/></g><g clip-path="url(#1cbac33a8d)"><g transform="matrix(1, 0, 0, 1, 187, 67)"><g clip-path="url(#d8f0d80fbd)"><g clip-path="url(#2ba0e9ca88)"><path fill="#ffffff" d="M 0.847656 180.773438 L 0.847656 0.773438 C 32.804688 1.558594 58.402344 13.929688 75.875 40.363281 C 96.335938 71.332031 97.410156 104.101562 78.871094 136.214844 C 61.9375 165.539062 35.253906 179.507812 0.851562 180.777344 Z M 0.847656 180.773438 " fill-opacity="1" fill-rule="nonzero"/></g></g></g></g><path stroke-linecap="butt" transform="matrix(-0.75, 0, 0, -0.75, 284.509762, 163.610144)" fill="none" stroke-linejoin="miter" d="M 0.00259909 8.001026 L 258.710949 8.001026 " stroke="#3a5e96" stroke-width="16" stroke-opacity="1" stroke-miterlimit="4"/><path stroke-linecap="butt" transform="matrix(0, 0.75, -0.75, 0, 195.484782, 247.442854)" fill="none" stroke-linejoin="miter" d="M -0.00193054 1.000543 C 12.628279 1.000543 23.175154 1.000543 31.62828 1.000543 " stroke="#ffffff" stroke-width="2" stroke-opacity="1" stroke-miterlimit="4"/><g clip-path="url(#678a867960)"><g clip-path="url(#c76ea4f266)"><g transform="matrix(1, 0, 0, 1, 175, 271)"><g clip-path="url(#fd8b8ee955)"><g clip-path="url(#778859c959)"><g clip-path="url(#55c849194f)"><path fill="#fdbf65" d="M 38.53125 39.246094 L 0.929688 39.246094 L 0.929688 0.472656 L 38.53125 0.472656 Z M 38.53125 39.246094 " fill-opacity="1" fill-rule="nonzero"/></g></g></g></g></g></g><g clip-path="url(#7b37021afe)"><g clip-path="url(#00c1d63d54)"><g transform="matrix(1, 0, 0, 1, 168, 64)"><g clip-path="url(#6eb1225348)"><g clip-path="url(#31949ca162)"><g clip-path="url(#f82445c4e1)"><path fill="#3a5e96" d="M 53.265625 0.742188 L 53.265625 186.085938 L 0.191406 186.085938 L 0.191406 0.742188 Z M 53.265625 0.742188 " fill-opacity="1" fill-rule="nonzero"/></g></g></g></g></g></g></g></svg>