<svg width="24" height="24" viewBox="0 0 24 24" fill="none" xmlns="http://www.w3.org/2000/svg">
  <!-- Authentic Scenarios icon: Speech bubbles representing workplace conversations -->
  <path d="M4 4H14C15.1046 4 16 4.89543 16 6V11C16 12.1046 15.1046 13 14 13H10L7 16V13H4C2.89543 13 2 12.1046 2 11V6C2 4.89543 2.89543 4 4 4Z" fill="#3a5e96" opacity="0.2" stroke="#3a5e96" stroke-width="1.5" stroke-linecap="round" stroke-linejoin="round"/>
  <circle cx="6" cy="8.5" r="0.75" fill="#3a5e96"/>
  <circle cx="9" cy="8.5" r="0.75" fill="#3a5e96"/>
  <circle cx="12" cy="8.5" r="0.75" fill="#3a5e96"/>
  <path d="M10 11H20C21.1046 11 22 11.8954 22 13V18C22 19.1046 21.1046 20 20 20H17L14 23V20H10C8.89543 20 8 19.1046 8 18V13C8 11.8954 8.89543 11 10 11Z" fill="#fdbf65" opacity="0.3" stroke="#3a5e96" stroke-width="1.5" stroke-linecap="round" stroke-linejoin="round"/>
  <line x1="12" y1="15.5" x2="18" y2="15.5" stroke="#3a5e96" stroke-width="1.5" stroke-linecap="round"/>
  <line x1="12" y1="17.5" x2="16" y2="17.5" stroke="#3a5e96" stroke-width="1.5" stroke-linecap="round"/>
</svg>
