<svg xmlns="http://www.w3.org/2000/svg" xmlns:xlink="http://www.w3.org/1999/xlink" width="259" zoomAndPan="magnify" viewBox="0 0 194.25 245.999995" height="328" preserveAspectRatio="xMidYMid meet" version="1.0"><defs><clipPath id="a26800d90b"><path d="M 5 3.152344 L 96.382812 3.152344 L 96.382812 182.460938 L 5 182.460938 Z M 5 3.152344 " clip-rule="nonzero"/></clipPath><clipPath id="13e10e3a05"><path d="M 96.648438 3.152344 L 188 3.152344 L 188 182.460938 L 96.648438 182.460938 Z M 96.648438 3.152344 " clip-rule="nonzero"/></clipPath><clipPath id="dde759907d"><path d="M 0.90625 0.492188 L 91.914062 0.492188 L 91.914062 179.460938 L 0.90625 179.460938 Z M 0.90625 0.492188 " clip-rule="nonzero"/></clipPath><clipPath id="66ee138ec3"><rect x="0" width="92" y="0" height="180"/></clipPath><clipPath id="93f5e616eb"><path d="M 0 87 L 193.503906 87 L 193.503906 99 L 0 99 Z M 0 87 " clip-rule="nonzero"/></clipPath><clipPath id="1a34b39ba4"><path d="M 85.117188 206.257812 L 122.574219 206.257812 L 122.574219 245.027344 L 85.117188 245.027344 Z M 85.117188 206.257812 " clip-rule="nonzero"/></clipPath><clipPath id="963d88e92d"><path d="M 103.847656 245.027344 C 114.191406 245.027344 122.574219 236.371094 122.574219 225.695312 C 122.574219 215.015625 114.191406 206.359375 103.847656 206.359375 C 93.503906 206.359375 85.117188 215.015625 85.117188 225.695312 C 85.117188 236.371094 93.503906 245.027344 103.847656 245.027344 Z M 103.847656 245.027344 " clip-rule="nonzero"/></clipPath><clipPath id="ff364eadef"><path d="M 0.117188 0.316406 L 37.574219 0.316406 L 37.574219 39.027344 L 0.117188 39.027344 Z M 0.117188 0.316406 " clip-rule="nonzero"/></clipPath><clipPath id="270a18290f"><path d="M 18.847656 39.027344 C 29.191406 39.027344 37.574219 30.371094 37.574219 19.695312 C 37.574219 9.015625 29.191406 0.359375 18.847656 0.359375 C 8.503906 0.359375 0.117188 9.015625 0.117188 19.695312 C 0.117188 30.371094 8.503906 39.027344 18.847656 39.027344 Z M 18.847656 39.027344 " clip-rule="nonzero"/></clipPath><clipPath id="f35185c45e"><rect x="0" width="38" y="0" height="40"/></clipPath><clipPath id="e9f0000217"><path d="M 77.410156 0.472656 L 130.28125 0.472656 L 130.28125 185.097656 L 77.410156 185.097656 Z M 77.410156 0.472656 " clip-rule="nonzero"/></clipPath><clipPath id="4cc14f242c"><path d="M 130.28125 145.363281 C 130.28125 167.292969 118.445312 185.070312 103.84375 185.070312 C 89.246094 185.070312 77.410156 167.292969 77.410156 145.363281 L 77.410156 40.175781 C 77.410156 18.246094 89.246094 0.46875 103.84375 0.46875 C 118.445312 0.46875 130.28125 18.246094 130.28125 40.175781 Z M 130.28125 145.363281 " clip-rule="nonzero"/></clipPath><clipPath id="37e67e355d"><path d="M 0.410156 0.472656 L 53.28125 0.472656 L 53.28125 185.097656 L 0.410156 185.097656 Z M 0.410156 0.472656 " clip-rule="nonzero"/></clipPath><clipPath id="15a0a62d3d"><path d="M 53.28125 145.363281 C 53.28125 167.292969 41.445312 185.070312 26.84375 185.070312 C 12.246094 185.070312 0.410156 167.292969 0.410156 145.363281 L 0.410156 40.175781 C 0.410156 18.246094 12.246094 0.46875 26.84375 0.46875 C 41.445312 0.46875 53.28125 18.246094 53.28125 40.175781 Z M 53.28125 145.363281 " clip-rule="nonzero"/></clipPath><clipPath id="5468430235"><rect x="0" width="54" y="0" height="186"/></clipPath></defs><g clip-path="url(#a26800d90b)"><path fill="#3a5e96" d="M 96.554688 3.492188 L 96.554688 182.460938 C 64.636719 181.679688 39.066406 169.378906 21.617188 143.097656 C 1.179688 112.308594 0.105469 79.726562 18.625 47.796875 C 35.535156 18.640625 62.1875 4.75 96.550781 3.488281 Z M 96.554688 3.492188 " fill-opacity="1" fill-rule="nonzero"/></g><g clip-path="url(#13e10e3a05)"><g transform="matrix(1, 0, 0, 1, 96, 3)"><g clip-path="url(#66ee138ec3)"><g clip-path="url(#dde759907d)"><path fill="#56b48c" d="M 0.734375 179.460938 L 0.734375 0.492188 C 32.652344 1.269531 58.21875 13.570312 75.671875 39.855469 C 96.109375 70.644531 97.179688 103.226562 78.664062 135.152344 C 61.75 164.308594 35.097656 178.203125 0.738281 179.464844 Z M 0.734375 179.460938 " fill-opacity="1" fill-rule="nonzero"/></g></g></g></g><g clip-path="url(#93f5e616eb)"><path stroke-linecap="butt" transform="matrix(-0.747115, 0, 0, -0.747115, 193.281078, 98.957062)" fill="none" stroke-linejoin="miter" d="M -0.000230583 7.999559 L 258.713583 7.999559 " stroke="#ffffff" stroke-width="16" stroke-opacity="1" stroke-miterlimit="4"/></g><path stroke-linecap="butt" transform="matrix(0, 0.747115, -0.747115, 0, 104.5985, 182.467324)" fill="none" stroke-linejoin="miter" d="M 0.00190899 0.999761 C 12.628599 0.999761 23.174368 0.999761 31.62876 0.999761 " stroke="#e76835" stroke-width="2" stroke-opacity="1" stroke-miterlimit="4"/><g clip-path="url(#1a34b39ba4)"><g clip-path="url(#963d88e92d)"><g transform="matrix(1, 0, 0, 1, 85, 206)"><g clip-path="url(#f35185c45e)"><g clip-path="url(#ff364eadef)"><g clip-path="url(#270a18290f)"><path fill="#fdbf65" d="M 37.574219 39.027344 L 0.117188 39.027344 L 0.117188 0.402344 L 37.574219 0.402344 Z M 37.574219 39.027344 " fill-opacity="1" fill-rule="nonzero"/></g></g></g></g></g></g><g clip-path="url(#e9f0000217)"><g clip-path="url(#4cc14f242c)"><g transform="matrix(1, 0, 0, 1, 77, -0.000000000000012879)"><g clip-path="url(#5468430235)"><g clip-path="url(#37e67e355d)"><g clip-path="url(#15a0a62d3d)"><path fill="#ffffff" d="M 53.28125 0.46875 L 53.28125 185.097656 L 0.410156 185.097656 L 0.410156 0.46875 Z M 53.28125 0.46875 " fill-opacity="1" fill-rule="nonzero"/></g></g></g></g></g></g></svg>