<svg width="24" height="24" viewBox="0 0 24 24" fill="none" xmlns="http://www.w3.org/2000/svg">
  <!-- Nano-Skills Training icon: Building blocks/steps representing progressive learning -->
  <path d="M3 20L3 14L8 14L8 20L3 20Z" fill="#3a5e96" opacity="0.3"/>
  <path d="M9 20L9 10L14 10L14 20L9 20Z" fill="#3a5e96" opacity="0.6"/>
  <path d="M15 20L15 6L20 6L20 20L15 20Z" fill="#3a5e96"/>
  <path d="M3 14L8 14L8 20L3 20L3 14Z" stroke="#3a5e96" stroke-width="1.5" stroke-linecap="round" stroke-linejoin="round"/>
  <path d="M9 10L14 10L14 20L9 20L9 10Z" stroke="#3a5e96" stroke-width="1.5" stroke-linecap="round" stroke-linejoin="round"/>
  <path d="M15 6L20 6L20 20L15 20L15 6Z" stroke="#3a5e96" stroke-width="1.5" stroke-linecap="round" stroke-linejoin="round"/>
  <path d="M8 14L9 10" stroke="#3a5e96" stroke-width="1.5" stroke-linecap="round" stroke-dasharray="2 2"/>
  <path d="M14 10L15 6" stroke="#3a5e96" stroke-width="1.5" stroke-linecap="round" stroke-dasharray="2 2"/>
</svg>
